<svg width="1440" height="1865" viewBox="0 0 1440 1865" fill="none" xmlns="http://www.w3.org/2000/svg">
<rect x="552" y="532" width="816" height="253" rx="69" fill="#333331"/>
<rect x="100" y="785" width="444" height="548" rx="69" fill="#333331"/>
<path d="M670.45 734.616C670.449 734.616 670.449 734.616 670.449 734.616V734.616C670.448 734.615 670.448 734.615 670.448 734.616C670.447 734.616 670.445 734.618 670.443 734.618C666.187 735.993 661.978 737.521 657.785 739.076C649.892 742.004 639.002 746.283 627.03 751.687C602.813 762.617 575.203 777.694 558.521 794.901C540.913 813.065 526.437 842.935 516.248 869.109C511.212 882.048 507.325 893.807 504.699 902.329C503.388 906.587 502.393 910.028 501.729 912.395C501.398 913.577 501.149 914.492 500.984 915.104C500.904 915.402 500.824 915.701 500.745 916C499.612 920.271 495.277 922.851 490.998 921.746L487.126 920.746C484.987 920.193 483.701 918.011 484.253 915.872V915.872C484.806 913.733 486.988 912.447 489.127 913L493 914C491.435 913.596 490.186 913.273 489.19 913.016C486.706 912.374 485.631 910.542 486.324 908.072V908.072C487.021 905.59 488.054 902.018 489.409 897.618C492.118 888.824 496.129 876.686 501.338 863.305C511.64 836.84 527.052 804.375 547.033 783.765C565.954 764.247 595.955 748.158 620.448 737.104C632.832 731.514 644.074 727.096 652.222 724.074C656.298 722.562 659.608 721.397 661.909 720.606C663.06 720.211 663.959 719.909 664.576 719.704V719.704C665.185 719.502 665.666 719.746 665.863 720.357C666.16 721.281 666.74 723.083 667.871 726.599L666.775 723.191C666.099 721.089 667.256 718.836 669.358 718.159V718.159C671.461 717.483 673.714 718.639 674.391 720.742L676.545 727.438C677.385 730.049 675.949 732.847 673.337 733.687L670.45 734.616Z" fill="#333331" stroke="#333331" stroke-width="51"/>
<path d="M604 642C604 642 581.052 731.567 542.173 772C505.35 810.296 423 837 423 837" stroke="#333331" stroke-width="53"/>
<rect x="166" y="766" width="71" height="68" fill="#FEBE76"/>
<path d="M208.013 702.694C222.513 695.99 239.013 689.398 237.513 702.694C236.013 715.99 234.513 712.398 223.013 720.398C211.513 728.398 203.013 731.398 200.513 753.898C198.013 776.398 202.013 776.897 202.013 776.897C200.368 783.886 196.076 798.209 177.538 787.553C159 776.897 167.446 742.805 175.513 729.898C182.902 718.075 193.513 709.398 208.013 702.694Z" fill="#FEBE76" stroke="#FEBE76"/>
<rect x="250" y="766" width="71" height="68" fill="#FEBE76"/>
<path d="M292.013 702.694C306.513 695.99 323.013 689.398 321.513 702.694C320.013 715.99 318.513 712.398 307.013 720.398C295.513 728.398 287.013 731.398 284.513 753.898C282.013 776.398 286.013 776.897 286.013 776.897C284.368 783.886 280.076 798.209 261.538 787.553C243 776.897 251.446 742.805 259.513 729.898C266.902 718.075 277.513 709.398 292.013 702.694Z" fill="#FEBE76" stroke="#FEBE76"/>
<path d="M740.475 599.475C741.842 598.108 741.842 595.892 740.475 594.525L718.201 572.251C716.834 570.884 714.618 570.884 713.251 572.251C711.884 573.618 711.884 575.834 713.251 577.201L733.05 597L713.251 616.799C711.884 618.166 711.884 620.382 713.251 621.749C714.618 623.116 716.834 623.116 718.201 621.749L740.475 599.475ZM626 597V600.5H738V597V593.5H626V597Z" fill="#FEBE76"/>
</svg>
